<?xml version="1.0" standalone="no"?>
<!DOCTYPE svg PUBLIC "-//W3C//DTD SVG 1.1//EN"

"http://www.w3.org/Graphics/SVG/1.1/DTD/svg11.dtd">
<svg width="100%" height="100%" version="1.1"
xmlns="http://www.w3.org/2000/svg">
<rect x="20" y="20" width="250" height="250"
style="fill:green;stroke:gray;stroke-width:5;
opacity:0.9" transform="translate(35 30) scale(0.8 0.8)"/>

<circle cx="150" cy="150" r="80"
stroke="black" stroke-width="2" fill="red"/>
<path d="M20 260
L 20 320
L 30 320 
L 40 300 
L 50 320
L 60 320
L 60 260
L 40 280 Z" transform="translate(80 -140)" style="fill:yellow;stroke-width:2;filter:url(#Gaussian_Blur)"/>

<path d="M35 10
L 35 40
L 40 40 
L 40 10 Z
M40 25
L 55 10
L 55 15
L 45 25
L 50 35
L 45 45
L 40 25 Z" transform="translate(100 100) scale(2 2)" style="fill:yellow;stroke-width:2;filter:url(#Gaussian_Blur)"/>

<defs>
 <radialGradient id="grey_blue" cx="50%" cy="50%" r="50%"
 fx="50%" fy="50%">
 <stop offset="0%" style="stop-color:rgb(100,45,100);
 stop-opacity:0"/>
 <stop offset="100%" style="stop-color:rgb(34,255,255);
 stop-opacity:1"/>
 </radialGradient>
 </defs>
 <ellipse cx="230" cy="200" rx="110" ry="100"
 style="fill:url(#grey_blue)" transform="translate(0 20) scale(0.65 0.65)"/>


<defs>
<filter id="Gaussian_Blur"
>
<feGaussianBlur in="SourceGraphic"
stdDeviation="2" />
</filter>
</defs>

</svg>